<svg width="44" height="44" viewBox="0 0 44 44" fill="none" xmlns="http://www.w3.org/2000/svg">
<mask id="mask0_8_714" style="mask-type:luminance" maskUnits="userSpaceOnUse" x="0" y="0" width="44" height="44">
<path d="M22 44C34.1503 44 44 34.1503 44 22C44 9.84974 34.1503 0 22 0C9.84974 0 0 9.84974 0 22C0 34.1503 9.84974 44 22 44Z" fill="white"/>
</mask>
<g mask="url(#mask0_8_714)">
<path d="M22 44C34.1503 44 44 34.1503 44 22C44 9.84974 34.1503 0 22 0C9.84974 0 0 9.84974 0 22C0 34.1503 9.84974 44 22 44Z" stroke="#409A56" stroke-width="2"/>
</g>
<path fill-rule="evenodd" clip-rule="evenodd" d="M23.3147 35H18.4372V23.4985H16V19.5355H18.4372V17.1563C18.4372 13.9234 19.8127 12 23.723 12H26.9776V15.9645H24.9435C23.4213 15.9645 23.3207 16.5183 23.3207 17.5518L23.314 19.5355H27L26.5686 23.4985H23.314L23.3147 35Z" fill="#409A56"/>
</svg>
