<svg width="110" height="100" viewBox="0 0 110 100" fill="none" xmlns="http://www.w3.org/2000/svg">
<path d="M45.2889 0.215175C35.0534 1.19608 25.1804 5.43956 17.3545 12.1993C13.6014 15.4192 11.1918 18.17 8.39837 22.3708C-0.834937 36.2101 -2.56218 53.4613 3.74973 68.9639C9.95502 84.2745 23.6877 95.6402 40.0432 99.0521C44.436 99.9477 50.8332 100.268 55.3752 99.7558C76.8911 97.4314 94.718 81.2038 99.0042 60.0504C99.8145 56.0628 100.049 53.0988 99.9424 48.6421C99.8358 44.3346 99.7079 43.7375 98.5777 42.8632C97.085 41.6904 95.2085 41.861 93.929 43.2684C93.0548 44.2493 93.0974 43.8868 93.1401 49.0259C93.204 53.4186 92.8415 56.6599 91.9672 60.3276C88.1502 75.8302 75.8889 88.1128 60.3224 91.9725C43.6896 96.088 25.9054 89.7548 15.5419 76.0008C2.72618 58.9842 4.21886 34.9947 19.0817 19.9186C33.2409 5.54619 54.6715 2.71009 72.0932 12.903C72.9889 13.4361 74.0337 13.9479 74.4176 14.0545C76.6566 14.6942 79.0662 12.2419 78.4478 9.96026C78.1279 8.80876 77.5309 8.21169 75.5477 7.01754C66.8475 1.75051 55.5458 -0.787054 45.2889 0.215175Z" fill="#409A56"/>
<path d="M104.591 4.77864C103.909 5.0132 98.6631 10.1523 79.6847 29.1307L55.6312 53.1842L46.3126 43.8656C41.1735 38.7478 36.6954 34.4404 36.3756 34.3124C35.48 33.9926 34.6057 34.0565 33.6674 34.5257C32.2174 35.272 31.535 36.8073 31.9615 38.4066C32.1747 39.217 33.4329 40.5604 42.7941 49.9429C48.6156 55.7857 53.7547 60.7542 54.1811 60.9888C55.0768 61.4366 55.951 61.5006 56.8466 61.1807C57.657 60.8608 108.472 10.1096 108.856 9.21404C110.007 6.56986 107.321 3.77641 104.591 4.77864Z" fill="#409A56"/>
</svg>
