<svg width="124" height="77" viewBox="0 0 124 77" fill="none" xmlns="http://www.w3.org/2000/svg">
<path d="M81.9581 28.545C86.5946 25.1065 91.5006 21.924 96.8886 19.438C96.1501 19.5365 95.4206 19.693 94.6921 19.8575L93.6016 20.119L92.5246 20.4265C91.0896 20.847 89.6641 21.317 88.2661 21.861C85.4646 22.94 82.7526 24.2575 80.1136 25.722C74.8761 28.7145 69.9916 32.388 65.6311 36.6205C64.5631 37.699 63.5176 38.802 62.4611 39.8965L60.9736 41.614C60.4821 42.191 59.9721 42.751 59.5091 43.3545C58.5596 44.5405 57.6126 45.7285 56.7446 46.984C55.8411 48.2095 55.0061 49.493 54.1846 50.782C52.5876 53.395 51.1246 56.109 49.9366 58.976C49.4841 60.0165 49.0906 61.0905 48.7326 62.181C48.2296 61.459 47.7166 60.7445 47.1841 60.0455C45.4156 57.7445 43.4841 55.5855 41.4211 53.5695C39.3426 51.5695 37.1291 49.721 34.7736 48.0895C33.6036 47.265 32.3806 46.517 31.1426 45.8115C30.5276 45.4525 29.8916 45.1275 29.2506 44.818C28.6111 44.5075 27.9661 44.207 27.2991 43.964C28.4371 44.8045 29.4981 45.7255 30.5441 46.65C31.5931 47.5705 32.5841 48.552 33.5576 49.5385C35.4966 51.521 37.3276 53.583 39.0106 55.749C39.8556 56.8285 40.6726 57.925 41.4486 59.0495C42.2481 60.156 42.9871 61.3015 43.7031 62.4575C44.4241 63.61 45.1091 64.7825 45.7536 65.9755C46.4061 67.1635 47.0256 68.3685 47.6071 69.59L50.7761 76.2485L52.2291 68.685C52.2606 68.5215 52.3386 68.1435 52.4076 67.8515C52.4896 67.534 52.5606 67.215 52.6531 66.892C52.8301 66.2455 53.0441 65.597 53.2621 64.949C53.5081 64.3045 53.7231 63.654 54.0046 63.0165C54.2641 62.3735 54.5251 61.731 54.8261 61.099C55.9916 58.5625 57.3516 56.089 58.8456 53.686C60.3571 51.2895 61.9986 48.9645 63.7366 46.6965C64.5926 45.554 65.5311 44.4685 66.4186 43.345C67.3581 42.2725 68.2871 41.1875 69.2391 40.122C73.0991 35.9075 77.3646 32.05 81.9581 28.545Z" fill="#409A56"/>
<path d="M34.7045 62.3845C33.0105 62.264 31.422 61.7965 29.855 61.1485C26.833 59.9385 24.809 57.4685 23.037 54.591C21.2535 51.7155 19.694 48.4625 17.2715 45.385C16.065 43.8565 14.5765 42.405 12.8165 41.2325C12.5 41.03 12.1725 40.8425 11.8405 40.6625C12.3105 40.325 12.786 39.996 13.2665 39.6775C15.0065 38.5325 16.8505 37.5795 18.74 36.852C19.686 36.49 20.6475 36.187 21.619 35.976C22.587 35.7545 23.566 35.58 24.5455 35.53C26.501 35.4145 28.4765 35.58 30.3735 36.1745C34.1865 37.2925 37.6775 39.817 40.3755 43.1465C43.1025 46.478 45.042 50.5425 46.5065 54.8705C46.3435 50.309 45.191 45.653 42.7905 41.491C41.593 39.415 40.073 37.478 38.2395 35.8165C36.4105 34.1525 34.258 32.7805 31.888 31.839C31.3055 31.5755 30.686 31.415 30.078 31.215C29.77 31.1295 29.457 31.059 29.146 30.9815C28.8355 30.8995 28.5215 30.8335 28.204 30.7845C26.942 30.5315 25.6515 30.447 24.3695 30.4555C21.8015 30.477 19.271 30.9705 16.914 31.801C14.5395 32.6035 12.3415 33.759 10.282 35.0715C9.24901 35.7265 8.26801 36.4515 7.31451 37.212C6.84001 37.596 6.37102 37.986 5.91202 38.3965C5.68152 38.601 5.45401 38.8085 5.22601 39.024C4.98901 39.2485 4.79152 39.4365 4.51152 39.727L0.88501 43.4885L6.02452 44.2865C7.45952 44.5095 8.79501 44.975 10.03 45.699C11.2645 46.43 12.4155 47.407 13.479 48.6C15.6495 50.949 17.463 53.994 19.773 56.904C20.9275 58.3625 22.234 59.795 23.807 60.9965C25.3655 62.189 27.2495 63.107 29.1445 63.483C30.9585 63.8835 32.915 64.052 34.7705 63.7405C36.621 63.4695 38.391 62.7635 39.837 61.7055C38.137 62.2905 36.3975 62.507 34.7045 62.3845Z" fill="#409A56"/>
<path d="M120.388 15.0275C120.171 14.787 120.008 14.6145 119.821 14.421L119.278 13.8675C118.915 13.5045 118.548 13.152 118.177 12.8045C117.435 12.112 116.676 11.4425 115.9 10.7935C114.34 9.506 112.705 8.30949 111.002 7.20199C107.603 4.98299 103.873 3.181 99.8835 2.011C95.9015 0.852 91.6175 0.385001 87.4215 0.933501C86.8975 0.998501 86.3735 1.05999 85.8575 1.17349C85.341 1.28049 84.819 1.361 84.309 1.4935L82.7835 1.9005C82.2825 2.0465 81.8045 2.224 81.3145 2.3855C79.3615 3.0365 77.5055 3.914 75.689 4.8475C74.797 5.3455 73.919 5.86899 73.047 6.39549C72.2115 6.98299 71.366 7.5525 70.5475 8.157C69.7605 8.805 68.961 9.43449 68.1925 10.0985L66.0065 12.2195C63.205 15.159 60.9395 18.559 59.222 22.1595L58.5765 23.5085C58.3525 23.9535 58.211 24.435 58.0255 24.8955C57.685 25.83 57.3195 26.7525 57.024 27.695L56.251 30.553L56.0595 31.2645C55.998 31.502 55.966 31.747 55.9185 31.988L55.6545 33.436L55.4055 34.8825L55.284 35.604L55.219 36.3345L54.966 39.245C54.8435 40.2075 54.903 41.1865 54.891 42.154C54.8915 43.123 54.895 44.0885 54.9115 45.051C55.083 44.097 55.2415 43.1465 55.3965 42.199C55.5605 41.2525 55.682 40.304 55.927 39.3755L56.577 36.589L56.7395 35.8955L56.9575 35.216L57.3875 33.8595L57.803 32.5045C57.876 32.2805 57.9325 32.051 58.0185 31.8315L58.2825 31.175L59.332 28.5605C59.712 27.705 60.171 26.8865 60.5735 26.048C60.7895 25.636 60.9615 25.202 61.2125 24.81L61.9365 23.6215C63.848 20.4535 66.156 17.562 68.848 15.109C71.5485 12.669 74.577 10.6225 77.84 9.082C79.4805 8.336 81.148 7.64899 82.868 7.15249C84.5825 6.58949 86.261 6.275 87.998 6.1105C89.724 5.96 91.4645 5.94649 93.1975 6.15249C94.931 6.34999 96.648 6.73399 98.3415 7.23599C101.731 8.24699 104.979 9.862 108.039 11.8055C109.568 12.7825 111.044 13.855 112.463 14.999C112.675 15.1685 112.882 15.343 113.091 15.516C111.96 15.963 110.863 16.495 109.825 17.115C107.331 18.6385 105.19 20.596 103.407 22.699C99.797 26.908 97.3445 31.5585 94.4785 35.695C93.057 37.7635 91.534 39.717 89.757 41.3505C89.5395 41.562 89.315 41.7635 89.0795 41.9475C88.8465 42.136 88.618 42.3335 88.3805 42.5175C87.891 42.858 87.4125 43.227 86.893 43.5215C86.3915 43.8545 85.8515 44.112 85.314 44.385C85.0475 44.528 84.76 44.6175 84.4825 44.738C84.2 44.849 83.9295 44.974 83.626 45.0655C82.4425 45.472 81.231 45.81 79.9985 46.055C78.7675 46.307 77.517 46.4935 76.2535 46.5675C73.7315 46.711 71.1505 46.486 68.677 45.6585C70.956 46.929 73.5865 47.6095 76.238 47.8165C77.5665 47.9225 78.9085 47.93 80.245 47.828C81.581 47.7225 82.9095 47.515 84.2235 47.2305C86.911 46.6675 89.541 45.429 91.729 43.733C93.961 42.0655 95.803 40.0235 97.502 37.9625C100.849 33.807 103.599 29.4015 106.942 25.884C108.594 24.1085 110.424 22.6395 112.386 21.5095C114.371 20.4195 116.524 19.7475 118.781 19.4405L123.766 18.763L120.388 15.0275Z" fill="#409A56"/>
</svg>
