<svg width="44" height="44" viewBox="0 0 44 44" fill="none" xmlns="http://www.w3.org/2000/svg">
<mask id="mask0_8_735" style="mask-type:luminance" maskUnits="userSpaceOnUse" x="0" y="0" width="44" height="44">
<path d="M43.5 22C43.5 33.8741 33.8741 43.5 22 43.5C10.1259 43.5 0.5 33.8741 0.5 22C0.5 10.1259 10.1259 0.5 22 0.5C33.8741 0.5 43.5 10.1259 43.5 22Z" fill="white" stroke="#409A56"/>
</mask>
<g mask="url(#mask0_8_735)">
<g filter="url(#filter0_dd_8_735)">
<path d="M22 44C34.1503 44 44 34.1503 44 22C44 9.84974 34.1503 0 22 0C9.84974 0 0 9.84974 0 22C0 34.1503 9.84974 44 22 44Z" stroke="#409A56" stroke-width="2" shape-rendering="crispEdges"/>
</g>
</g>
<path d="M28.6685 12.9588L28.6686 12.9588C29.2459 13.1832 29.6713 13.4596 30.1058 13.8942C30.5404 14.3287 30.8168 14.7541 31.0411 15.3314C31.2111 15.7688 31.4019 16.4047 31.4534 17.5323L30.9539 17.5551L31.4534 17.5323C31.5068 18.7038 31.518 19.0607 31.518 22C31.518 24.9393 31.5068 25.2962 31.4534 26.4677L30.9539 26.4449L31.4534 26.4677C31.4019 27.5954 31.2111 28.2312 31.0411 28.6686C30.8168 29.2459 30.5404 29.6713 30.1058 30.1059C29.6713 30.5404 29.2459 30.8169 28.6686 31.0412C28.2312 31.2112 27.5953 31.4019 26.4677 31.4534C25.2964 31.5069 24.9394 31.518 22 31.518C19.0605 31.518 18.7036 31.5069 17.5323 31.4534C16.4046 31.4019 15.7688 31.2112 15.3314 31.0412M28.6685 12.9588L15.5125 30.5751M28.6685 12.9588C28.2312 12.7889 27.5953 12.5981 26.4677 12.5466L26.4449 13.0459L26.4677 12.5466C25.2962 12.4932 24.9393 12.482 22 12.482C19.0607 12.482 18.7038 12.4932 17.5322 12.5466L17.5322 12.5466C16.4046 12.5981 15.7688 12.7889 15.3314 12.9588L15.3314 12.9588C14.7541 13.1832 14.3287 13.4596 13.8941 13.8942C13.4596 14.3287 13.1831 14.7541 12.9588 15.3314M28.6685 12.9588L28.4875 13.4249C28.0998 13.2743 27.5174 13.0951 26.4449 13.0461C25.285 12.9932 24.9371 12.982 22 12.982C19.0628 12.982 18.715 12.9932 17.555 13.0461C16.4826 13.0951 15.9001 13.2743 15.5125 13.4249C14.9991 13.6244 14.6326 13.8628 14.2477 14.2477C13.8628 14.6326 13.6244 14.9991 13.4249 15.5125M15.3314 31.0412L15.5125 30.5751M15.3314 31.0412C15.3314 31.0412 15.3314 31.0412 15.3314 31.0412L15.5125 30.5751M15.3314 31.0412C14.7541 30.8169 14.3287 30.5404 13.8941 30.1059C13.4596 29.6713 13.1831 29.2459 12.9588 28.6686C12.7888 28.2312 12.5981 27.5954 12.5466 26.4678L12.5466 26.4678C12.4931 25.2962 12.482 24.9393 12.482 22C12.482 19.0607 12.4931 18.7038 12.5466 17.5323L12.5466 17.5323C12.5981 16.4047 12.7888 15.7688 12.9588 15.3314M15.5125 30.5751C14.9991 30.3756 14.6326 30.1372 14.2477 29.7523C13.8628 29.3674 13.6244 29.0009 13.4249 28.4875C13.2742 28.0999 13.095 27.5174 13.0461 26.445C12.9932 25.285 12.982 24.9372 12.982 22C12.982 19.0629 12.9932 18.715 13.0461 17.5551C13.095 16.4826 13.2742 15.9002 13.4249 15.5125M12.9588 15.3314L13.4249 15.5125M12.9588 15.3314C12.9588 15.3314 12.9588 15.3314 12.9588 15.3314L13.4249 15.5125M14.9757 12.0436L14.9757 12.0435C15.6188 11.7936 16.364 11.617 17.4875 11.5657C18.6494 11.5127 19.015 11.5 22 11.5C24.985 11.5 25.3506 11.5127 26.5124 11.5657C27.6359 11.617 28.3812 11.7936 29.0243 12.0435L29.2052 11.578L29.0243 12.0436C29.6877 12.3014 30.2411 12.6408 30.8002 13.1998C31.3592 13.7589 31.6987 14.3123 31.9564 14.9757C32.2064 15.6188 32.383 16.3641 32.4343 17.4875C32.4873 18.6494 32.5 19.015 32.5 22C32.5 24.985 32.4873 25.3507 32.4343 26.5125C32.383 27.636 32.2064 28.3812 31.9565 29.0243C31.6987 29.6877 31.3592 30.2412 30.8002 30.8002C30.2411 31.3593 29.6877 31.6987 29.0243 31.9565C28.3812 32.2064 27.6359 32.3831 26.5125 32.4344C25.3507 32.4874 24.985 32.5 22 32.5C19.015 32.5 18.6493 32.4874 17.4875 32.4344C16.364 32.3831 15.6188 32.2064 14.9757 31.9565C14.3123 31.6987 13.7588 31.3593 13.1998 30.8002C12.6407 30.2412 12.3013 29.6877 12.0435 29.0243C11.7936 28.3812 11.6169 27.636 11.5656 26.5125C11.5126 25.3507 11.5 24.985 11.5 22C11.5 19.015 11.5126 18.6493 11.5656 17.4876C11.6169 16.3641 11.7936 15.6188 12.0435 14.9757L12.0435 14.9757C12.3013 14.3123 12.6407 13.7589 13.1998 13.1998C13.7588 12.6408 14.3123 12.3014 14.9757 12.0436ZM14.7946 11.5777L14.7947 11.5779L14.7946 11.5777ZM16.869 22.0218C16.869 19.176 19.176 16.869 22.0218 16.869C24.8676 16.869 27.1746 19.176 27.1746 22.0218C27.1746 24.8676 24.8676 27.1746 22.0218 27.1746C19.176 27.1746 16.869 24.8676 16.869 22.0218ZM17.8525 22.0218C17.8525 24.3245 19.7192 26.1912 22.0218 26.1912C24.3245 26.1912 26.1912 24.3245 26.1912 22.0218C26.1912 19.7192 24.3245 17.8525 22.0218 17.8525C19.7192 17.8525 17.8525 19.7192 17.8525 22.0218ZM28.6587 16.1071C28.6587 16.5542 28.2963 16.9167 27.8492 16.9167C27.4021 16.9167 27.0397 16.5542 27.0397 16.1071C27.0397 15.66 27.4021 15.2976 27.8492 15.2976C28.2963 15.2976 28.6587 15.66 28.6587 16.1071Z" fill="#409A56" stroke="#409A56"/>
<defs>
<filter id="filter0_dd_8_735" x="-5" y="-1" width="54" height="54" filterUnits="userSpaceOnUse" color-interpolation-filters="sRGB">
<feFlood flood-opacity="0" result="BackgroundImageFix"/>
<feColorMatrix in="SourceAlpha" type="matrix" values="0 0 0 0 0 0 0 0 0 0 0 0 0 0 0 0 0 0 127 0" result="hardAlpha"/>
<feOffset dy="4"/>
<feGaussianBlur stdDeviation="2"/>
<feComposite in2="hardAlpha" operator="out"/>
<feColorMatrix type="matrix" values="0 0 0 0 0 0 0 0 0 0 0 0 0 0 0 0 0 0 0.25 0"/>
<feBlend mode="normal" in2="BackgroundImageFix" result="effect1_dropShadow_8_735"/>
<feColorMatrix in="SourceAlpha" type="matrix" values="0 0 0 0 0 0 0 0 0 0 0 0 0 0 0 0 0 0 127 0" result="hardAlpha"/>
<feOffset dy="4"/>
<feGaussianBlur stdDeviation="2"/>
<feComposite in2="hardAlpha" operator="out"/>
<feColorMatrix type="matrix" values="0 0 0 0 0 0 0 0 0 0 0 0 0 0 0 0 0 0 0.25 0"/>
<feBlend mode="normal" in2="effect1_dropShadow_8_735" result="effect2_dropShadow_8_735"/>
<feBlend mode="normal" in="SourceGraphic" in2="effect2_dropShadow_8_735" result="shape"/>
</filter>
</defs>
</svg>
