<svg width="44" height="44" viewBox="0 0 44 44" fill="none" xmlns="http://www.w3.org/2000/svg">
<mask id="mask0_8_756" style="mask-type:luminance" maskUnits="userSpaceOnUse" x="0" y="0" width="44" height="44">
<path d="M43.5 22C43.5 33.8741 33.8741 43.5 22 43.5C10.1259 43.5 0.5 33.8741 0.5 22C0.5 10.1259 10.1259 0.5 22 0.5C33.8741 0.5 43.5 10.1259 43.5 22Z" fill="white" stroke="#409A56"/>
</mask>
<g mask="url(#mask0_8_756)">
<path d="M22 44C34.1503 44 44 34.1503 44 22C44 9.84974 34.1503 0 22 0C9.84974 0 0 9.84974 0 22C0 34.1503 9.84974 44 22 44Z" stroke="#409A56" stroke-width="2"/>
</g>
<path d="M22.6618 24.6482V31.5H19.2849L19.285 31.4647C19.2864 31.1219 19.2884 30.6309 19.2906 30.0381C19.295 28.8526 19.3003 27.2601 19.3039 25.6322C19.3097 22.9377 19.3109 20.1229 19.2944 18.9131H22.6618V20.5453L23.6436 20.679C23.7329 20.3571 24.0552 19.8805 24.6479 19.4779C25.2277 19.0841 26.0382 18.7825 27.0529 18.7825C28.3154 18.7825 29.4072 19.2243 30.1896 20.1158C30.9776 21.0138 31.5 22.4237 31.5 24.4446V31.5H28.0797V24.9684C28.0797 23.998 27.8995 23.1119 27.4598 22.4532C27.0011 21.7658 26.2895 21.3732 25.3678 21.3732C23.9019 21.3732 23.1236 22.4553 22.7891 23.3618C22.7052 23.5808 22.6783 23.817 22.6677 24.0234C22.6596 24.1834 22.6605 24.3564 22.6613 24.5142C22.6616 24.5604 22.6618 24.6053 22.6618 24.6482ZM13.0045 18.9131H15.9026V31.4987H13.0045V18.9131ZM14.3542 16.2138H14.326C13.2123 16.2138 12.5 15.4209 12.5 14.3601C12.5 13.8079 12.6922 13.3477 13.0073 13.0274C13.3208 12.7087 13.7839 12.5 14.3812 12.5C14.9765 12.5 15.4227 12.7069 15.7245 13.0215C16.0291 13.339 16.219 13.8004 16.2319 14.3615C16.2307 14.9004 16.0443 15.359 15.7332 15.6805C15.4238 16.0002 14.9628 16.2138 14.3542 16.2138Z" fill="#409A56" stroke="#409A56"/>
</svg>
