<svg width="44" height="44" viewBox="0 0 44 44" fill="none" xmlns="http://www.w3.org/2000/svg">
<mask id="mask0_8_882" style="mask-type:luminance" maskUnits="userSpaceOnUse" x="0" y="0" width="44" height="44">
<path d="M43.5 22C43.5 33.8741 33.8741 43.5 22 43.5C10.1259 43.5 0.5 33.8741 0.5 22C0.5 10.1259 10.1259 0.5 22 0.5C33.8741 0.5 43.5 10.1259 43.5 22Z" fill="white" stroke="#409A56"/>
</mask>
<g mask="url(#mask0_8_882)">
<path d="M22 44C34.1503 44 44 34.1503 44 22C44 9.84974 34.1503 0 22 0C9.84974 0 0 9.84974 0 22C0 34.1503 9.84974 44 22 44Z" stroke="#409A56" stroke-width="2"/>
</g>
<path d="M20.4972 28.2749L20.1739 28.1431L19.9388 28.4011L16.2808 32.4151L16.2757 32.4207L16.2707 32.4265C16.2235 32.4815 16.1728 32.5096 16.0734 32.5096C16.0394 32.5096 16.0164 32.5072 16.0026 32.5048C15.9965 32.5037 15.9928 32.5028 15.9912 32.5023L15.9792 32.497L15.9639 32.4914C15.9055 32.4699 15.8688 32.4397 15.8388 32.3947C15.8041 32.3426 15.7878 32.2899 15.7878 32.224V26.6757V26.3399L15.477 26.2129L9.68315 23.8438L9.68322 23.8436L9.67086 23.8389C9.59533 23.8103 9.56411 23.7793 9.54844 23.7578C9.53192 23.735 9.50848 23.6893 9.50158 23.5949L9.50143 23.5931C9.4953 23.5133 9.50984 23.4722 9.52221 23.4494C9.53511 23.4256 9.56499 23.3863 9.64378 23.3413L9.64557 23.3403L30.0714 11.5561L30.0715 11.5562L30.0788 11.5518C30.1566 11.5051 30.2045 11.4993 30.2304 11.5001C30.2552 11.5008 30.2986 11.5086 30.3663 11.555C30.4378 11.6078 30.4672 11.6529 30.481 11.6856C30.4948 11.7183 30.5062 11.7697 30.4938 11.8556L27.3526 30.7029C27.3525 30.7033 27.3524 30.7036 27.3524 30.704C27.3382 30.7849 27.3025 30.8469 27.2014 30.9078C27.1672 30.9267 27.1273 30.9384 27.0719 30.9384C27.0575 30.9384 27.0221 30.935 26.961 30.912L20.4972 28.2749ZM26.2691 30.0109L26.8483 30.2475L26.9514 29.6304L29.6642 13.3904L29.8387 12.3458L28.9212 12.8749L11.3186 23.0264L10.4336 23.5368L11.3796 23.9226L15.5041 25.6043L15.7644 25.7104L15.9904 25.5431L24.5664 19.1931L19.99 26.8236L19.6903 27.3233L20.2297 27.5436L26.2691 30.0109Z" fill="#409A56" stroke="#409A56"/>
</svg>
