<svg width="44" height="44" viewBox="0 0 44 44" fill="none" xmlns="http://www.w3.org/2000/svg">
<mask id="mask0_8_798" style="mask-type:luminance" maskUnits="userSpaceOnUse" x="0" y="0" width="44" height="44">
<path d="M43 22C43 33.598 33.598 43 22 43C10.402 43 1 33.598 1 22C1 10.402 10.402 1 22 1C33.598 1 43 10.402 43 22Z" stroke="#409A56" stroke-width="2"/>
</mask>
<g mask="url(#mask0_8_798)">
<path d="M22 44C34.1503 44 44 34.1503 44 22C44 9.84974 34.1503 0 22 0C9.84974 0 0 9.84974 0 22C0 34.1503 9.84974 44 22 44Z" stroke="#409A56" stroke-width="2"/>
</g>
<path d="M26.1355 22.4415L26.8724 22.01L26.1356 21.5785L19.588 17.7441L18.8354 17.3033V18.1756V25.8432V26.7153L19.588 26.2747L26.1355 22.4415ZM28.5534 28.5H28.5529L28.5526 28.5L28.5522 28.5H15.4454C14.6713 28.5 14.1239 28.3084 13.7304 28.0468C13.3337 27.7831 13.0632 27.428 12.8776 27.058C12.6911 26.6859 12.5953 26.3079 12.547 26.0186C12.523 25.8752 12.5112 25.7567 12.5055 25.6761C12.5026 25.6359 12.5012 25.6053 12.5006 25.5861L12.5 25.566L12.5 25.5637C12.5 25.5639 12.5 25.5642 12 25.5642H12.5V25.5629V18.4358C12.5 17.6646 12.6919 17.1195 12.954 16.7274C13.2183 16.3321 13.5744 16.0622 13.9458 15.8769C14.3192 15.6908 14.6987 15.5952 14.9891 15.5469C15.1331 15.523 15.252 15.5112 15.3329 15.5054C15.3733 15.5026 15.404 15.5012 15.4234 15.5006L15.4436 15.5L15.4467 15.5H28.5534C29.3279 15.5 29.8755 15.6916 30.2692 15.9533C30.666 16.217 30.9366 16.572 31.1222 16.9421C31.3088 17.3141 31.4046 17.6922 31.453 17.9814C31.477 18.1249 31.4888 18.2433 31.4945 18.3239C31.4974 18.3641 31.4988 18.3947 31.4994 18.4139L31.5 18.4341L31.5 18.4358V18.4363V18.4366L31.5 18.4372V18.4373L31.5 25.5642C31.5 26.3353 31.3081 26.8805 31.0458 27.2726C30.7815 27.6679 30.4253 27.9378 30.0536 28.123C29.6801 28.3092 29.3005 28.4048 29.01 28.4531C28.8659 28.477 28.747 28.4888 28.666 28.4946C28.6256 28.4974 28.5949 28.4988 28.5755 28.4994L28.5552 28.5L28.5534 28.5Z" fill="#409A56" stroke="#409A56"/>
</svg>
